<svg xmlns="http://www.w3.org/2000/svg" viewBox="0 0 800 400" width="800" height="400">
  <rect width="800" height="400" fill="#0d1526"/>
  <g stroke="#24304c" stroke-width="1">
    <!-- mesh grid, evokes a finite-element mesh -->
    <g id="v"></g>
  </g>
  <g stroke="#2c3e63" stroke-width="1" fill="none">
    <path d="M0,50 H800 M0,110 H800 M0,170 H800 M0,230 H800 M0,290 H800 M0,350 H800"/>
    <path d="M60,0 V400 M140,0 V400 M220,0 V400 M300,0 V400 M380,0 V400 M460,0 V400 M540,0 V400 M620,0 V400 M700,0 V400 M780,0 V400"/>
  </g>
  <g fill="#4f83f0" opacity="0.85">
    <circle cx="220" cy="170" r="4"/>
    <circle cx="300" cy="170" r="4"/>
    <circle cx="380" cy="170" r="4"/>
    <circle cx="220" cy="230" r="4"/>
    <circle cx="300" cy="230" r="4"/>
    <circle cx="380" cy="230" r="4"/>
  </g>
  <text x="400" y="210" text-anchor="middle" font-family="monospace" font-size="14" fill="#7482a3">figure placeholder</text>
</svg>